<svg width="128" height="128" viewBox="0 0 128 128" fill="none" xmlns="http://www.w3.org/2000/svg">
<rect width="128" height="128" rx="24" fill="#3D4CF2"/>
<path fill-rule="evenodd" clip-rule="evenodd" d="M68.5799 81.9886C71.6717 83.6615 76.9914 86.48 81.0471 88.3984C84.4851 89.9392 88.3887 90.0784 91.9278 88.7863C95.4669 87.4942 98.3622 84.8728 99.9981 81.4795C102.091 77.3148 103.381 72.793 103.799 68.1509C104.8 58.1783 102.036 48.1918 96.0497 40.1525C90.0633 32.1132 81.287 26.602 71.4444 24.7011C66.1309 23.6932 60.6682 23.7727 55.3864 24.9349C50.1045 26.0971 45.1131 28.3178 40.7138 31.4629C36.3145 34.6079 32.5985 38.612 29.7905 43.2333C26.9824 47.8545 25.1406 52.997 24.3762 58.3499C23.9729 61.3634 23.8936 64.4114 24.1398 67.4417C24.1583 67.8454 24.2613 68.2407 24.4421 68.6021C24.6229 68.9635 24.8774 69.283 25.1893 69.54C25.5012 69.797 25.8635 69.9858 26.2528 70.0942C26.6422 70.2026 27.0499 70.2282 27.4498 70.1693C43.531 68.3079 56.4721 75.3758 68.191 81.7763C68.3208 81.8471 68.4504 81.9179 68.5799 81.9886ZM83.4933 82.9978C79.5285 81.1976 74.6453 78.6065 71.4444 76.7881C48.7197 63.6246 37.2893 63.8559 31.3525 63.976C30.8393 63.9864 30.3672 63.9959 29.9323 63.9959C29.932 58.8714 31.0877 53.8128 33.3133 49.1967C35.539 44.5805 38.7773 40.5257 42.7873 37.334C46.7972 34.1423 51.4755 31.8959 56.474 30.7621C61.4724 29.6283 66.6623 29.6362 71.6573 30.7853C76.6522 31.9343 81.3237 34.1949 85.3239 37.3989C89.3241 40.6028 92.55 44.6675 94.7616 49.2904C96.9731 53.9133 98.1133 58.9754 98.0974 64.0999C98.0814 69.2244 96.9096 74.2793 94.6693 78.8883C93.7192 80.9033 92.0146 82.4637 89.9235 83.2326C87.8324 84.0015 85.5227 83.9172 83.4933 82.9978ZM39.6116 95.7703C45.0867 99.9735 51.5641 102.675 58.4035 103.609C66.2892 104.718 74.3266 103.455 81.492 99.9813C82.0079 99.7338 82.4409 99.3419 82.7383 98.8531C83.0357 98.3643 83.1848 97.7997 83.1675 97.2278C83.1501 96.656 82.9671 96.1014 82.6407 95.6315C82.3142 95.1617 81.8583 94.7966 81.3283 94.5808C76.6724 92.6533 70.8708 89.5985 65.933 86.8709C54.2205 80.4703 43.0809 74.4515 29.6679 75.5335C29.2035 75.5782 28.756 75.7308 28.3611 75.9793C27.9662 76.2278 27.6349 76.5651 27.3937 76.9644C27.1525 77.3637 27.008 77.8139 26.9719 78.279C26.9357 78.7441 27.0088 79.2112 27.1854 79.643C29.8534 86.0082 34.1366 91.5672 39.6116 95.7703ZM72.4439 97.0265C65.8511 98.9358 46.3364 100.227 34.6876 81.3795C44.5485 81.952 53.5828 86.8836 63.0706 92.0627L63.0867 92.0715C66.133 93.7353 69.2339 95.4263 72.4439 97.0265Z" fill="white"/>
</svg>
